<svg xmlns="http://www.w3.org/2000/svg" viewBox="0 0 22.87 23.13"><defs><style>.cls-1{fill:#f37630;}.cls-2{fill:#ed3224;}.cls-3{fill:#0a2471;}</style></defs><g id="Layer_2" data-name="Layer 2"><g id="Layer_1-2" data-name="Layer 1"><path class="cls-1" d="M22.87,18.67c0,.14,0,.29,0,.42v0a3.67,3.67,0,0,1-.21.94h0a4.38,4.38,0,0,1-1,1.64,3.34,3.34,0,0,1-.33.32c-.07-.18-.14-.36-.22-.52v0a21.09,21.09,0,0,0-3.44-7.27,20.51,20.51,0,0,0-1.51-1.84A21.12,21.12,0,0,0,.64,5.58H.54A5.86,5.86,0,0,1,1,4.5a22.21,22.21,0,0,1,15.61,6.77,22.17,22.17,0,0,1,2.4,3,22.06,22.06,0,0,1,2.08,3.82,19.85,19.85,0,0,0-1.3-3.63A20.21,20.21,0,0,0,17,9.86,21,21,0,0,0,2.78,2.24,8.32,8.32,0,0,1,4,1.29a22.21,22.21,0,0,1,13,7,21.67,21.67,0,0,1,4,6.31,21,21,0,0,0-4.38-8.48A21.21,21.21,0,0,0,8,0h.5a8.43,8.43,0,0,1,3.84.92,8.52,8.52,0,0,1,2.11,1.5,22.15,22.15,0,0,1,8.28,15.31A4.11,4.11,0,0,1,22.87,18.67Z"/><path class="cls-2" d="M21.34,22l-.08.07c-.05-.2-.09-.4-.14-.59C21.2,21.68,21.27,21.86,21.34,22Z"/><path class="cls-3" d="M21.12,21.52c.05.19.09.39.14.59l.08-.07C21.27,21.86,21.2,21.68,21.12,21.52Z"/><path class="cls-3" d="M21.26,22.11a3.92,3.92,0,0,1-.87.56,20.93,20.93,0,0,0-4.85-7.48c-.26-.26-.53-.51-.81-.76A21.07,21.07,0,0,0,.64,9.05H0a4.52,4.52,0,0,1,0-.52A5.68,5.68,0,0,1,0,8H.64a22.2,22.2,0,0,1,14.8,5.64h0c.37.32.72.66,1.06,1a21.72,21.72,0,0,1,4.62,6.9v0C21.17,21.71,21.21,21.91,21.26,22.11Z"/><path class="cls-3" d="M17.94,23.13a4.44,4.44,0,0,1-2.24-.87q-.39-.41-.81-.78A21.06,21.06,0,0,0,7.05,17H7c-.49-.17-1-.3-1.5-.42A8.07,8.07,0,0,1,2.9,15a21.33,21.33,0,0,1,7.17,2h0a21.84,21.84,0,0,1,3.86,2.32A22.55,22.55,0,0,1,17.94,23.13Z"/><path class="cls-3" d="M20.06,22.83a4.84,4.84,0,0,1-1.09.28,21.17,21.17,0,0,0-4.88-5.77h0c-.52-.42-1.06-.83-1.62-1.21A20.91,20.91,0,0,0,1,12.51a6,6,0,0,1-.5-1.13H.64A22,22,0,0,1,13.5,15.49q.55.39,1.08.81A21.59,21.59,0,0,1,20.06,22.83Z"/><path class="cls-2" d="M21.34,22l-.08.07c-.05-.2-.09-.4-.14-.59C21.2,21.68,21.27,21.86,21.34,22Z"/></g></g></svg>