<svg xmlns="http://www.w3.org/2000/svg" viewBox="0 0 48.22 32.99"><defs><style>.cls-1{fill:#f37630;}.cls-2{fill:#0a2471;}.cls-3{fill:#401244;}.cls-4{fill:#ed3224;}</style></defs><g id="Layer_2" data-name="Layer 2"><g id="Layer_1-2" data-name="Layer 1"><path class="cls-1" d="M7,27A1.61,1.61,0,0,0,5.8,26.7H1.47A1.61,1.61,0,0,0,.31,27,1.71,1.71,0,0,0,0,28.19v.43H1V27.56H6.23v1.06h1v-.43A1.7,1.7,0,0,0,7,27Z"/><path class="cls-2" d="M0,23.05a1.65,1.65,0,0,1,.31-1.16,1.61,1.61,0,0,1,1.16-.32H5.81A1.67,1.67,0,0,1,7,21.88a1.72,1.72,0,0,1,.3,1.17v1.58A1.73,1.73,0,0,1,7,25.81a1.67,1.67,0,0,1-1.15.3H1.47A1.61,1.61,0,0,1,.31,25.8,1.66,1.66,0,0,1,0,24.63Zm1,2.19H6.23V22.43H1Z"/><path class="cls-2" d="M10.44,28.62V22.36h5.05a1.5,1.5,0,0,1,1,.28,1.21,1.21,0,0,1,.31.93v.73a1,1,0,0,1-.25.75,1.34,1.34,0,0,1-.79.32,1.23,1.23,0,0,1,.8.37,1.28,1.28,0,0,1,.28.85v.8a1.07,1.07,0,0,1-.43.93,2.33,2.33,0,0,1-1.31.3Zm5.31-4.25v-.63a.54.54,0,0,0-.14-.42.76.76,0,0,0-.5-.12H11.49v1.73h3.62a.73.73,0,0,0,.5-.13A.55.55,0,0,0,15.75,24.37ZM15.8,27V26.5a.89.89,0,0,0-.15-.59.71.71,0,0,0-.54-.16H11.49v2h3.62a.71.71,0,0,0,.54-.16A.84.84,0,0,0,15.8,27Z"/><path class="cls-1" d="M19.74,28.62V22.36h5.05a1.5,1.5,0,0,1,1,.28,1.21,1.21,0,0,1,.31.93v.73a1,1,0,0,1-.25.75,1.34,1.34,0,0,1-.79.32,1.11,1.11,0,0,1,1.08,1.22v.8a1.07,1.07,0,0,1-.43.93,2.31,2.31,0,0,1-1.31.3Zm5.31-4.25v-.63a.58.58,0,0,0-.13-.42.79.79,0,0,0-.51-.12H20.79v1.73h3.62a.71.71,0,0,0,.5-.13A.55.55,0,0,0,25.05,24.37ZM25.1,27V26.5a.89.89,0,0,0-.15-.59.71.71,0,0,0-.54-.16H20.79v2h3.62A.7.7,0,0,0,25,27.6.84.84,0,0,0,25.1,27Z"/><path class="cls-2" d="M31,28.62V25.89l-3.18-3.53h1.3l2.45,2.79,2.35-2.79h1.27L32,25.87v2.75Z"/><path class="cls-2" d="M38.58,24.22c.18,0,.28,0,.32.06a.5.5,0,0,1,.05.27v.91l-.85,1.3h-.54l.72-1.32h-.41a.29.29,0,0,1-.21-.07.49.49,0,0,1,0-.26v-.56a.5.5,0,0,1,0-.27s.14-.06.32-.06Z"/><path class="cls-2" d="M47,24.94H42.51v1h4a1.81,1.81,0,0,1,1.15.27c.2.18.3,0,.3.51v.61a1.35,1.35,0,0,1-.3,1,1.84,1.84,0,0,1-1.15.26H42.8a1.84,1.84,0,0,1-1.16-.27,1.32,1.32,0,0,1-.31-1v-.15l1-.19v.87H47V26.74H43a1.8,1.8,0,0,1-1.16-.27c-.2-.18-.3,0-.3-.52v-.47a1.32,1.32,0,0,1,.3-1A1.8,1.8,0,0,1,43,24.2h3.33a1.85,1.85,0,0,1,1.16.26,1.17,1.17,0,0,1,.31.93v.11l-.89.22Z"/><path class="cls-3" d="M46.47,28.41v.06h0v0A0,0,0,0,1,46.47,28.41Z"/><path class="cls-1" d="M25.94,30.82v1.52l-.14.13h-.24l-.14-.13V30.82H25v1.66l0,0a.9.9,0,0,0,.37.32H26a.79.79,0,0,0,.33-.32h0V30.82h-.36Z"/><path class="cls-1" d="M29,30.82h-.3a.5.5,0,0,0-.36.11.48.48,0,0,0-.13.35V32.4a.44.44,0,0,0,.12.32.51.51,0,0,0,.35.11H29a.5.5,0,0,0,.33-.11.42.42,0,0,0,.11-.33v-.08h-.36v.08l-.08.1h-.33l-.1-.09v-.32l.08-.09h.45v-.35h-.45l-.08-.11v-.25l.11-.11H29l.09.1v.08h.38v-.08a.49.49,0,0,0-.12-.34A.51.51,0,0,0,29,30.82Z"/><path class="cls-1" d="M32.1,30.82h-.3a.52.52,0,0,0-.36.11.48.48,0,0,0-.13.35v1.55h.38V31.28l.1-.11h.31l.11.11v1.55h.36V31.27a.49.49,0,0,0-.12-.34A.48.48,0,0,0,32.1,30.82Z"/><polygon class="cls-1" points="34.5 30.82 34.42 30.82 34.42 31.1 34.42 31.18 34.76 31.18 34.76 32.75 34.76 32.83 35.06 32.83 35.14 32.83 35.14 31.18 35.41 31.18 35.49 31.18 35.49 30.9 35.49 30.82 35.41 30.82 34.5 30.82"/><path class="cls-1" d="M38.22,30.82v1.55l-.1.11h-.31l-.11-.11V30.82h-.38v1.55a.44.44,0,0,0,.13.34.52.52,0,0,0,.36.12h.31a.47.47,0,0,0,.34-.12.43.43,0,0,0,.12-.34V30.82h-.36Z"/><path class="cls-1" d="M41.72,31.27a.4.4,0,0,0-.13-.33.43.43,0,0,0-.33-.13h-.32a.5.5,0,0,0-.36.13.44.44,0,0,0-.13.34v1.55h.38v-.75l.08-.09h.36l.09.09v.75h.36V32l0-.17,0,0a.35.35,0,0,0,.07-.21Zm-.36.27-.1.1h-.35l-.08-.11v-.25l.1-.11h.33l.1.11Z"/><path class="cls-1" d="M44.38,30.82h-.3a.52.52,0,0,0-.36.11.48.48,0,0,0-.13.35V32.4a.41.41,0,0,0,.13.32.47.47,0,0,0,.34.11h.33a.49.49,0,0,0,.33-.11.46.46,0,0,0,.12-.33v-.08h-.36v.08l-.08.1h-.34L44,32.4v-.32L44,32h.45v-.35h-.44L44,31.53v-.25l.1-.11h.31l.1.1v.08h.37v-.08a.49.49,0,0,0-.12-.34A.48.48,0,0,0,44.38,30.82Z"/><path class="cls-1" d="M47.21,30.82a.53.53,0,0,0-.36.11.51.51,0,0,0-.12.35v.28a.47.47,0,0,0,.1.32.42.42,0,0,0,.31.11h.39l.09.09v.31l-.09.1h-.8v.34h.79a.51.51,0,0,0,.34-.11.46.46,0,0,0,.12-.33v-.34a.39.39,0,0,0-.11-.31.47.47,0,0,0-.32-.1h-.37l-.08-.11v-.25l.11-.11H48v-.35h-.77Z"/><polygon class="cls-3" points="46.47 28.47 46.48 28.46 46.48 28.44 46.47 28.45 46.47 28.47"/><path class="cls-1" d="M48.22,18.67c0,.14,0,.29,0,.42v0a3.68,3.68,0,0,1-.22.94h0a4.23,4.23,0,0,1-1,1.64,2.61,2.61,0,0,1-.34.32,4,4,0,0,0-.21-.52v0A21.09,21.09,0,0,0,43,14.23a20.61,20.61,0,0,0-1.52-1.84A21.08,21.08,0,0,0,26,5.58h-.11a6.64,6.64,0,0,1,.5-1.08A22.17,22.17,0,0,1,42,11.27a20.7,20.7,0,0,1,2.4,3,22.11,22.11,0,0,1,2.09,3.82,21.55,21.55,0,0,0-4.15-8.19A21,21,0,0,0,28.13,2.24a8.24,8.24,0,0,1,1.25-1,22.15,22.15,0,0,1,13,7,21.91,21.91,0,0,1,4,6.31A21.15,21.15,0,0,0,33.39,0h.5a8.36,8.36,0,0,1,3.83.92,8.16,8.16,0,0,1,2.11,1.5,22.13,22.13,0,0,1,8.29,15.31A4.11,4.11,0,0,1,48.22,18.67Z"/><path class="cls-4" d="M46.68,22a.29.29,0,0,1-.08.07c0-.2-.09-.4-.13-.59A4,4,0,0,1,46.68,22Z"/><polygon class="cls-1" points="46.28 32.99 46.29 32.97 46.28 32.97 46.28 32.99"/><path class="cls-2" d="M46.47,25v0h0Zm0-3.44c0,.19.09.39.13.59a.29.29,0,0,0,.08-.07A4,4,0,0,0,46.47,21.52Z"/><path class="cls-2" d="M46.6,22.11a3.86,3.86,0,0,1-.86.56,21.2,21.2,0,0,0-4.85-7.48c-.26-.26-.53-.51-.81-.76A21.08,21.08,0,0,0,26,9.05h-.62a4.52,4.52,0,0,1,0-.52,5.68,5.68,0,0,1,0-.59H26a22.2,22.2,0,0,1,14.8,5.64h0c.37.32.71.66,1.06,1a21.89,21.89,0,0,1,4.62,6.9v0C46.51,21.71,46.56,21.91,46.6,22.11Z"/><path class="cls-2" d="M46.47,25v0h0Zm0,3.45v0A0,0,0,0,1,46.47,28.41Z"/><path class="cls-3" d="M46.47,28.41v.06h0v0A0,0,0,0,1,46.47,28.41Z"/><path class="cls-2" d="M43.29,23.13A4.47,4.47,0,0,1,41,22.26c-.25-.27-.52-.53-.8-.78A21.14,21.14,0,0,0,32.4,17h0c-.5-.17-1-.3-1.51-.42A8,8,0,0,1,28.25,15a21.21,21.21,0,0,1,7.16,2h0a22.12,22.12,0,0,1,3.85,2.32A22.61,22.61,0,0,1,43.29,23.13Z"/><path class="cls-2" d="M45.4,22.83a4.63,4.63,0,0,1-1.08.28,21.17,21.17,0,0,0-4.88-5.77h0c-.53-.42-1.07-.83-1.63-1.21a20.88,20.88,0,0,0-11.48-3.61,5.94,5.94,0,0,1-.49-1.13H26a22,22,0,0,1,12.86,4.11c.37.26.72.53,1.07.81A21.45,21.45,0,0,1,45.4,22.83Z"/><path class="cls-4" d="M46.68,22a.29.29,0,0,1-.08.07c0-.2-.09-.4-.13-.59A4,4,0,0,1,46.68,22Z"/></g></g></svg>